<?xml version="1.0" encoding="UTF-8" standalone="no"?>
<svg xmlns:svg="http://www.w3.org/2000/svg" xmlns="http://www.w3.org/2000/svg"
     version="1.0" width="200px"  height="200px" viewBox="-100 -10 200 200">
    <defs />
    <path style="fill:#999999;fill-opacity:1;fill-rule:evenodd;stroke:none;" transform="scale(1.2,1.2)" d="M -1.07,1.076 C -16.46,0.8416 -28.76,15.13 -31.7,30.43 -34.55,44.48 -31.56,59.24 -26.76,72.41 -24.85,79.27 -17.45,83.18 -18.8,90.98 -17.97,99.45 -24.87,104.7 -30.68,108.8 -40.89,115.9 -54.69,114.9 -63.62,124.5 -70.202,130.7 -71.081,140.5 -73.927,148.8 -24.64,148.8 24.64,148.9 73.9,148.9 70.5,139.7 69.5,128.3 61,122.4 50.5,114 35.6,116.3 25.6,106.6 19.28,102.7 14.31,95.45 16.58,87.23 18.1,80.43 24.28,75.95 25.8,68.89 31.3,52.31 33.7,32.41 24.35,16.81 19.01,7.493 9.33,0.9133 -1.07,1.076 z" />
</svg>
