<?xml version="1.0" encoding="UTF-8"?>
<svg id="Layer_2" data-name="Layer 2" xmlns="http://www.w3.org/2000/svg" xmlns:xlink="http://www.w3.org/1999/xlink" viewBox="0 0 189.81 94.94">
  <defs>
    <style>
      .cls-1 {
        fill: url(#linear-gradient-2);
      }

      .cls-2 {
        fill: #fff;
      }

      .cls-3 {
        fill: url(#linear-gradient);
      }
    </style>
    <linearGradient id="linear-gradient" x1="124.25" y1="47.47" x2="168.2" y2="47.47" gradientUnits="userSpaceOnUse">
      <stop offset=".33" stop-color="#accd3b"/>
      <stop offset=".53" stop-color="#19a74a"/>
      <stop offset=".8" stop-color="#accd3b"/>
      <stop offset="1" stop-color="#19a74a"/>
    </linearGradient>
    <linearGradient id="linear-gradient-2" x1="172.34" y1="41.63" x2="189.81" y2="41.63" gradientUnits="userSpaceOnUse">
      <stop offset=".55" stop-color="#accd3b"/>
      <stop offset="1" stop-color="#19a74a"/>
    </linearGradient>
  </defs>
  <g id="Layer_1-2" data-name="Layer 1">
    <g>
      <path class="cls-2" d="M0,53.52c1.1-.53,2.16-1.04,3.61-1.75,3.51,4.59,7.04,9.19,10.59,13.84,3.85-4.75,7.6-9.38,11.49-14.19,1.86,1.11,3.44,2.06,4.67,2.79-.33,1.56-.86,2.83-.83,4.09,.16,5.83,.52,11.65,.7,17.48,.02,.69-.5,1.57-1.04,2.07-.85,.77-1.93,1.29-3.44,2.26v-25.9c-5.41,3.69-10.56,11.98-9.48,15.02-.9,.36-1.8,.72-3.04,1.21-3.12-4.1-6.28-8.26-9.44-12.42-.2,.03-.4,.06-.61,.09v17.04c-2.09-2.13-3.47-3.01-2.7-5.92,1.34-5.01,1.6-10.31-.49-15.71Z"/>
      <path class="cls-2" d="M62.09,79.08c.46-.21-.7,.2-.9,.24-.96,.16-1.93,.29-3.13,.47-4.15-6.16-8.35-12.39-12.79-18.97-2.26,6.93-4.3,13.18-6.45,19.77-.75-.9-1.63-1.96-2.49-3,.61-.97,1.36-1.76,1.65-2.68,2.23-7.23,4.31-14.51,6.62-21.72,.35-1.09,1.67-1.87,3.11-2.7-2.92,5.14,.72,8.34,2.97,11.84,2.76,4.28,5.69,8.44,9.04,13.38l2.37,3.37Z"/>
      <path class="cls-2" d="M83.92,67.2c0,.2-1.13,5.18-1.03,5.3,2.14,2.84-.98,5.49-2.01,7.61-1.15-.22-2.19-.59-3.23-.58-7.66,.06-14.29-5.99-15.71-11.16l.09-3.97c.91-4.53,2.96-5.44,3.55-6.81,.96-2.21,2.58-3.43,5-3.63,2.27-.19,4.56-.33,6.79-.74,3.69-.66,5.25,.79,4.97,4.63-.17,2.22-.08,1.29-.09,3.67l-1.29,.52c-1.03-5.3-.5-4.75-4.91-4.94-7.38-.32-10.64,1.83-11.84,8.03,6.67,.92,10.03-1.8,19.21,.01l.52,2.07Zm-18.64,.41c1.77,4.22,9.54,8.57,13.82,7.68,.51-.11,1.3-.47,1.38-.84,.47-2.2,.77-4.43,1.14-6.76-6.36-.87-9.85,.94-16.33-.07Z"/>
      <path class="cls-2" d="M90.53,53.12c1.86,1.11,3.44,2.06,4.67,2.79-.33,1.56-.86,2.83-.83,4.09,.16,5.83,.52,9.96,.7,15.79,.02,.69-.5,1.57-1.04,2.07-.85,.77-1.93,1.29-3.44,2.26v-24.21l-.06-2.78Z"/>
      <path class="cls-2" d="M122.06,76.88c-1.29,2.14-4.59,3.22-5.63,3.23-7.66,.06-14.29-5.99-15.71-11.16l.09-3.97c.91-4.53,2.96-5.44,3.55-6.81,.96-2.21,2.58-3.43,5-3.63,2.27-.19,4.56-.33,6.79-.74,3.69-.66,5.25,.79,4.97,4.63-.17,2.22-.08,1.29-.09,3.67l-1.29,.52c-1.03-5.3-.5-4.75-4.91-4.94-7.38-.32-9.86,1.29-11.06,7.48v3.72c1.77,4.22,9.85,7.89,14.13,6.99,.51-.11,2.81-.48,2.89-.85l1.29,1.86Z"/>
      <path class="cls-2" d="M.39,21.11c1.09-.53,2.15-1.04,3.59-1.73,3.49,4.55,6.99,9.13,10.52,13.74,3.82-4.72,7.54-9.31,11.4-14.09,1.85,1.1,3.42,2.04,4.64,2.77-.33,1.55-.86,2.81-.82,4.06,.16,5.79,.52,11.57,.69,17.36,.02,.69-.5,1.56-1.04,2.05-.84,.77-1.92,1.29-3.41,2.24V21.79c-5.38,3.67-10.48,11.9-9.41,14.91-.89,.35-1.78,.71-3.01,1.2-3.1-4.07-6.24-8.2-9.38-12.33-.2,.03-.4,.06-.6,.09v16.92c-2.08-2.12-3.45-2.99-2.68-5.88,1.33-4.98,1.58-10.23-.48-15.6Z"/>
      <path class="cls-2" d="M49.59,47.83c.4-.85,.8-1.35,.86-1.88,.2-1.78,.94-3.1-1.8-4.54-6.13-3.22-10.46-8.29-10.37-15.9,.01-1.03-.35-2.06-.57-3.21,2.11-1.01,3.92-3.45,6.73-1.32,.12,.09,.39,0,.58,0,6.1,.24,6.77-.77,4.89-7.55,1.02,.08,1.97,.15,3.12,.24v7.3c2.36,0,4.59,.13,6.8-.03,3.81-.27,5.25,1.29,4.58,4.95-.41,2.22-.56,4.49-.76,6.74-.22,2.39-1.43,4.01-3.63,4.94-1.36,.58-2.66,1.28-4.03,1.82-2.9,1.14-4.18,3.04-3.24,6.19,.88,2.97-.77,2.85-3.14,2.24Zm2.93-8.9c6.16-1.17,8.31-4.39,8.03-11.72-.17-4.38-.42-4.57-7.13-5.34-.16-.02-.34,.13-.9,.37v16.69Zm-2.47-17.31c-2.31,.36-4.53,.65-6.72,1.1-.37,.08-.73,.85-.84,1.36-.9,4.24,3.38,11.98,7.56,13.75V21.61Z"/>
      <path class="cls-2" d="M74.67,21.47c.83,2.99,2.24,4.73,5.47,4.25,2.22-.33,4.52-.79,6.69-.5,1.68,.22,3.22,1.51,5.35,2.59-2.61,4.45-4.88,8.64-7.48,12.61-.98,1.5-2.58,2.76-4.16,3.68-2.34,1.36-4.77,2.14-6.95-.73-1.09-1.43-2.81-2.39-4.25-3.56,.11-.3,.23-.6,.34-.89,.99,.36,2.12,.54,2.96,1.12,4.75,3.28,6.59,2.91,9.02-2.3,1.15-2.48,1.98-5.12,2.82-7.72,.51-1.59,.03-2.8-1.93-2.71-2.67,.12-5.34,.32-8.02,.49-.09,.31-.18,.63-.27,.94-.85-1.14-1.73-2.26-2.53-3.44-.77-1.13-1.46-2.31-2.64-4.2,3.74-.82,7.3-1.12,10.45-2.41,3.97-1.63,6.97-.32,10.09,2.07-2.45,.24-4.88,.57-7.32,.69-2.5,.12-5.02,.03-7.66,.03Z"/>
      <path class="cls-2" d="M102.68,21.85c.83,2.99,2.24,4.73,5.47,4.25,2.22-.33,4.52-.79,6.69-.5,1.68,.22,3.22,1.51,5.35,2.59-2.61,4.45-4.88,8.64-7.48,12.61-.98,1.5-2.58,2.76-4.16,3.68-2.34,1.36-4.77,2.14-6.95-.73-1.09-1.43-2.81-2.39-4.25-3.56,.11-.3,.23-.6,.34-.89,.99,.36,2.12,.54,2.96,1.12,4.75,3.28,6.59,2.91,9.02-2.3,1.15-2.48,1.98-5.12,2.82-7.72,.51-1.59,.03-2.8-1.93-2.71-2.67,.12-5.34,.32-8.02,.49-.09,.31-.18,.63-.27,.94-.85-1.14-1.73-2.26-2.53-3.44-.77-1.13-1.46-2.31-2.64-4.2,3.74-.82,7.3-1.12,10.45-2.41,3.97-1.63,6.97-.32,10.09,2.07-2.45,.24-4.88,.57-7.32,.69-2.5,.12-5.02,.03-7.66,.03Z"/>
      <g>
        <path class="cls-3" d="M161.49,94.9c.14-.82,.28-1.63,.42-2.45,.27-1.52,.94-3.1,.72-4.54-.32-2.02-.54-4.22-2.13-5.87-.75-.77-.94-1.71-.08-2.63,.6-.64,.62-1.3,.39-2.2-.43-1.68-.51-3.39-.45-5.18,.05-1.61,.68-3.42-.39-5.28-.76-1.32-.36-3.42-.16-5.14,.14-1.22,0-2.19-.79-3.08-.93-1.05-1.04-2.03-.46-3.42,1.19-2.87,2.6-5.72,2.57-8.96,0-.09-.01-.21,.04-.26,2.23-2.58,.89-5.37-.05-7.76-.98-2.5-.44-4.76-.15-7.1,.19-1.54,.71-2.95-.93-4.12-.37-.26-.17-1.33-.21-2.03-.09-1.63-.23-3.26-.24-4.89,0-1.11,0-2.25,.29-3.31,.53-2.03,.59-2.06-1.08-3.21-1.04-.72-1.07-1.26-.24-2.34,.16-.21,.11-.59,.11-.9,.02-1.42,.02-2.84,.03-4.25,0-1.16-2.98-3.41-4.15-3.18-.37,.07-.83,.01-1.16-.15-2.43-1.24-5.25,.27-6.64,2.33-1.15,1.7-2.39,3.45-2.98,5.37-.55,1.77-.8,3.94-.29,5.67,.75,2.53,.41,4.72-.44,7.04-.21,.58-.09,1.29-.06,1.93,.03,.49,.25,.97,.24,1.45-.05,3.12,.96,6,2.01,8.86,.62,1.69,.9,3.37,.05,5.1-.27,.54-.39,1.21-.4,1.82,0,2.78-.24,5.58,.92,8.25,.23,.54,.03,1.33-.12,1.97-.64,2.63-1.45,5.23-1.95,7.89-.25,1.34,0,2.78,.09,4.17,.12,1.65,.35,3.29,.49,4.94,.36,4.34,.68,8.67,1.04,13.01,.05,.57,.16,1.14,.24,1.7-1.12-.64-1.5-1.35-1.79-3.14-.52-3.19-1.04-6.38-1.61-9.57-.13-.74-.42-1.47-.74-2.15-.48-1.04-1.04-2-.09-3.13,.18-.22-.04-.95-.28-1.3-.7-1.01-.95-2.01-.41-3.16,.48-1.04-.23-1.61-.92-2.13-.82-.62-1.15-1.01-.57-2.25,.95-2.04,2.78-3.84,2.24-6.47-.27-1.31-.19-2.68-.31-4.02-.03-.32-.18-.8-.41-.89-1.12-.47-.76-1.23-.66-2.11,.19-1.81,.48-3.72,.13-5.46-.75-3.68-1.39-7.46-3.78-10.59-.26-.34-.39-.96-.29-1.39,.53-2.27,1.11-4.53,1.76-6.76,.33-1.12,.36-2.18,.31-3.36-.05-1.18,.05-2.31-.22-3.52-.24-1.09-.77-1.65-1.6-2.14-.71-.42-1.08-.85-.47-1.71,.5-.71-.26-2.59-1.26-3.21-.6-.37-1.29-.69-1.98-.81-2.76-.51-5.54-.93-8.36-1.39,.56-.2,1.22-.59,1.91-.66,2.31-.24,4.64-.34,6.95-.55,1.11-.1,2.27-.17,3.31-.53,1.57-.54,3.04-.52,4.63-.12,1.91,.48,3.87,.79,5.81,1.13,.32,.06,.69-.12,1.03-.21,2.33-.64,4.65-1.34,7-1.9,1.3-.31,2.65-.37,3.98-.57,3.14-.47,5.37,1.49,7.67,3.05,.86,.58,1.32,1.72,1.08,3.01-.47,2.49-1.58,4.9-1.12,7.53,.2,1.1,.41,2.2,.53,3.3,.19,1.73,.14,3.51,.52,5.19,.38,1.72,.29,3.22-.11,4.97-.67,2.89-.77,5.94-.83,8.93-.02,1.14,.65,2.32,1.11,3.44,.56,1.38,.75,2.81-.11,4.01-1.67,2.33-2.17,5.09-3.15,7.67-.48,1.27-1.06,2.59-1.12,3.91-.28,6.05-.43,12.11-.54,18.17-.02,1.1,.25,2.24,.6,3.29,.47,1.42,.8,2.73,.52,4.31-.32,1.83-.17,3.78-.03,5.66,.22,2.81,.33,5.54-1.76,7.81-.14,.15-.17,.4-.26,.61-.13-.01-.26-.02-.38-.04Z"/>
        <path class="cls-1" d="M181.77,22.71c.91-1.09,1.83-2.18,2.84-3.39-1.33-.63-1.37-1.43-.84-2.5,.25-.5,.1-1.19,.12-1.8,.06-1.71,.11-3.41,.18-5.46-.59-.7-1.31-1.99-2.9-2.14-.72-.07-1.44-.07-2.16-.14-.79-.07-1.84,.11-2.32-.33-1.13-1.03-2.35-.96-3.66-.89-.17,0-.35-.04-.7-.08,.85-.92,1.32-1.75,2.9-1.6,1.71,.16,3.52-.31,4.88-1.81,1.15-1.26,2.57-2.3,4.48-1.4,.32,.15,.73,.27,.9,.54,1.25,1.97,2.6,3.9,3.62,5.98,1.21,2.48,.59,5.06-.09,7.61-1.05,3.92-2.6,7.76-2.21,11.95,.05,.58,.12,1.16,.18,1.74,.18,1.73,.51,3.47,.51,5.2,0,2.51,.25,4.94,1.25,7.24,.85,1.96,.39,3.96-.03,5.84-.6,2.67-.89,5.3-.51,8.01,.07,.52,.09,1.1-.08,1.59-.71,2.04-1.05,4.03-.73,6.27,.27,1.88-.27,3.88-.45,5.83,0,.09-.06,.18-.05,.27,.32,3.3-1.02,6.27-1.77,9.36-.16,.67,.01,1.43,0,2.14-.02,.55-.09,1.09-.34,1.62-.71-2.62-1.2-5.2-.64-7.91,.2-.97-.12-2.08-.31-3.1-.14-.74-.55-1.43-.68-2.18-.06-.35,.13-.87,.39-1.12,1.13-1.08,1.84-3.93,1.08-5.33-.6-1.1-.46-1.95,.16-2.99,1.16-1.97,.75-4.24,.91-6.4,.12-1.63,.3-3.27,.38-4.9,.03-.52-.29-1.07-.25-1.59,.16-1.84-.59-3.39-1.25-5.03-.35-.87-.03-2.02,.03-3.03,.02-.35,.13-.71,.28-1.04,.85-1.93-.25-3.44-1.13-4.95-.82-1.4-1.51-2.72-.91-4.44,.34-.98,.56-2.13,.39-3.12-.15-.89-.92-1.67-1.45-2.56Z"/>
      </g>
    </g>
  </g>
</svg>