<?xml version="1.0" encoding="UTF-8"?>
<svg id="Layer_2" data-name="Layer 2" xmlns="http://www.w3.org/2000/svg" xmlns:xlink="http://www.w3.org/1999/xlink" viewBox="0 0 418.06 78.99">
  <defs>
    <style>
      .cls-1 {
        fill: url(#linear-gradient-2);
      }

      .cls-2 {
        fill: url(#linear-gradient);
      }

      .cls-3 {
        fill: #231f20;
      }
    </style>
    <linearGradient id="linear-gradient" x1="171.43" y1="39.5" x2="207.99" y2="39.5" gradientUnits="userSpaceOnUse">
      <stop offset=".33" stop-color="#accd3b"/>
      <stop offset=".53" stop-color="#19a74a"/>
      <stop offset=".8" stop-color="#accd3b"/>
      <stop offset="1" stop-color="#19a74a"/>
    </linearGradient>
    <linearGradient id="linear-gradient-2" x1="211.44" y1="34.64" x2="225.98" y2="34.64" gradientUnits="userSpaceOnUse">
      <stop offset=".55" stop-color="#accd3b"/>
      <stop offset="1" stop-color="#19a74a"/>
    </linearGradient>
  </defs>
  <g id="Layer_1-2" data-name="Layer 1">
    <g>
      <path class="cls-3" d="M0,21.35c1.6-.78,3.16-1.53,5.28-2.55,5.13,6.7,10.28,13.43,15.48,20.22,5.62-6.94,11.1-13.71,16.78-20.73,2.72,1.62,5.03,3,6.82,4.07-.49,2.28-1.26,4.14-1.21,5.98,.24,8.52,.76,17.03,1.02,25.55,.03,1.01-.73,2.3-1.52,3.02-1.24,1.13-2.82,1.89-5.02,3.3V22.35c-7.91,5.4-15.43,17.51-13.85,21.95-1.31,.52-2.62,1.05-4.44,1.77-4.56-5.99-9.18-12.07-13.8-18.14-.29,.04-.59,.09-.88,.13v24.9c-3.06-3.12-5.08-4.4-3.95-8.65,1.95-7.33,2.33-15.06-.71-22.96Z"/>
      <path class="cls-3" d="M69.93,60.67c.59-1.25,1.17-1.98,1.26-2.77,.29-2.62,1.38-4.56-2.65-6.68-9.02-4.73-15.39-12.2-15.26-23.4,.02-1.52-.52-3.04-.83-4.72,3.1-1.49,5.77-5.08,9.9-1.94,.18,.14,.57-.01,.86,0,8.97,.35,9.96-1.14,7.19-11.1,1.5,.12,2.9,.23,4.58,.36v10.75c3.47,0,6.75,.19,10-.04,5.61-.39,7.73,1.9,6.73,7.29-.6,3.26-.82,6.61-1.12,9.92-.32,3.52-2.1,5.89-5.34,7.28-2,.85-3.92,1.88-5.94,2.68-4.27,1.68-6.15,4.48-4.77,9.1,1.3,4.37-1.13,4.2-4.62,3.29Zm4.31-13.09c9.06-1.72,12.22-6.47,11.81-17.25-.25-6.45-.61-6.73-10.49-7.86-.24-.03-.5,.2-1.32,.55v24.57Zm-3.63-25.48c-3.4,.53-6.67,.95-9.88,1.62-.54,.11-1.08,1.26-1.24,2.01-1.33,6.24,4.97,17.63,11.12,20.24V22.09Z"/>
      <path class="cls-3" d="M106.83,21.87c1.23,4.4,3.29,6.96,8.05,6.26,3.26-.48,6.65-1.16,9.85-.73,2.47,.33,4.73,2.22,7.87,3.81-3.84,6.56-7.18,12.72-11,18.56-1.45,2.21-3.8,4.07-6.13,5.41-3.45,2-7.03,3.15-10.23-1.08-1.6-2.11-4.14-3.52-6.25-5.24,.17-.44,.34-.88,.51-1.32,1.46,.53,3.12,.79,4.35,1.64,6.99,4.83,9.7,4.28,13.28-3.39,1.7-3.64,2.92-7.53,4.15-11.37,.75-2.34,.05-4.11-2.84-3.99-3.94,.17-7.87,.47-11.8,.72-.13,.46-.26,.92-.39,1.38-1.25-1.68-2.54-3.33-3.72-5.06-1.13-1.66-2.15-3.4-3.88-6.18,5.51-1.21,10.74-1.65,15.37-3.55,5.85-2.4,10.25-.47,14.84,3.05-3.61,.35-7.18,.84-10.77,1.02-3.68,.18-7.38,.04-11.27,.04Z"/>
      <path class="cls-3" d="M143.09,22.44c1.23,4.4,3.29,6.96,8.05,6.26,3.26-.48,6.65-1.16,9.85-.73,2.47,.33,4.73,2.22,7.87,3.81-3.84,6.56-7.18,12.72-11,18.56-1.45,2.21-3.8,4.07-6.13,5.41-3.45,2-7.03,3.15-10.23-1.08-1.6-2.11-4.14-3.52-6.25-5.24,.17-.44,.34-.88,.51-1.32,1.46,.53,3.12,.79,4.35,1.64,6.99,4.83,9.7,4.28,13.28-3.39,1.7-3.64,2.92-7.53,4.15-11.37,.75-2.34,.05-4.11-2.84-3.99-3.94,.17-7.87,.47-11.8,.72-.13,.46-.26,.92-.39,1.38-1.25-1.68-2.54-3.33-3.72-5.06-1.13-1.66-2.15-3.4-3.88-6.18,5.51-1.21,10.74-1.65,15.37-3.55,5.85-2.4,10.25-.47,14.84,3.05-3.61,.35-7.18,.84-10.77,1.02-3.68,.18-7.38,.04-11.27,.04Z"/>
      <path class="cls-3" d="M239.72,21.35c1.6-.78,3.16-1.53,5.28-2.55,5.13,6.7,10.28,13.43,15.48,20.22,5.62-6.94,11.1-13.71,16.78-20.73,2.72,1.62,5.03,3,6.82,4.07-.49,2.28-1.26,4.14-1.21,5.98,.24,8.52,.76,17.03,1.02,25.55,.03,1.01-.73,2.3-1.52,3.02-1.24,1.13-2.82,1.89-5.02,3.3V22.35c-7.91,5.4-15.43,17.51-13.85,21.95-1.31,.52-2.62,1.05-4.44,1.77-4.56-5.99-9.18-12.07-13.8-18.14-.29,.04-.59,.09-.88,.13v24.9c-3.06-3.12-5.08-4.4-3.95-8.65,1.95-7.33,2.33-15.06-.71-22.96Z"/>
      <path class="cls-3" d="M330.43,58.7c.68-.31-1.02,.3-1.32,.35-1.41,.23-2.82,.43-4.58,.68-6.06-9-12.2-18.1-18.68-27.72-3.3,10.12-6.28,19.26-9.42,28.89-1.09-1.31-2.38-2.87-3.64-4.38,.9-1.42,1.99-2.56,2.41-3.91,3.26-10.57,6.29-21.21,9.67-31.73,.51-1.6,2.45-2.74,4.54-3.95-4.27,7.51,1.06,12.19,4.34,17.3,4.03,6.25,8.32,12.33,13.21,19.55l3.46,4.93Z"/>
      <path class="cls-3" d="M362.32,41.34c0,.29-1.65,7.57-1.51,7.75,3.12,4.15-1.44,8.02-2.94,11.11-1.69-.32-3.21-.87-4.72-.85-11.2,.08-20.87-8.75-22.95-16.31l.13-5.81c1.32-6.61,4.32-7.95,5.19-9.94,1.4-3.23,3.77-5.01,7.3-5.31,3.32-.28,6.66-.49,9.92-1.07,5.39-.97,7.68,1.16,7.26,6.77-.24,3.25-.12,1.88-.14,5.36l-1.89,.76c-1.51-7.75-.73-6.94-7.18-7.22-10.78-.46-15.54,2.68-17.3,11.73,9.75,1.34,14.66-2.63,28.07,.02l.76,3.02Zm-27.23,.6c2.59,6.17,13.94,12.52,20.19,11.21,.75-.16,1.9-.69,2.01-1.23,.69-3.21,1.12-6.48,1.67-9.88-9.29-1.27-14.4,1.37-23.87-.11Z"/>
      <path class="cls-3" d="M371.99,20.77c2.72,1.62,5.03,3,6.82,4.07-.49,2.28-1.26,4.14-1.21,5.98,.24,8.52,.76,14.55,1.02,23.07,.03,1.01-.73,2.3-1.52,3.02-1.24,1.13-2.82,1.89-5.02,3.3V24.84l-.09-4.07Z"/>
      <path class="cls-3" d="M418.06,55.49c-1.88,3.13-6.71,4.71-8.22,4.72-11.2,.08-20.87-8.75-22.95-16.31l.13-5.81c1.32-6.61,4.32-7.95,5.19-9.94,1.4-3.23,3.77-5.01,7.3-5.31,3.32-.28,6.66-.49,9.92-1.07,5.39-.97,7.68,1.16,7.26,6.77-.24,3.25-.12,1.88-.14,5.36l-1.89,.76c-1.51-7.75-.73-6.94-7.18-7.22-10.78-.46-14.4,1.88-16.16,10.94v5.43c2.59,6.17,14.4,11.52,20.64,10.22,.75-.16,4.1-.7,4.22-1.24l1.88,2.72Z"/>
      <g>
        <path class="cls-2" d="M202.41,78.96c.12-.68,.23-1.36,.35-2.04,.22-1.26,.79-2.58,.6-3.78-.27-1.68-.45-3.51-1.77-4.88-.62-.64-.78-1.42-.06-2.19,.5-.53,.52-1.08,.33-1.83-.36-1.4-.42-2.82-.38-4.31,.04-1.34,.57-2.85-.33-4.4-.63-1.1-.3-2.85-.14-4.27,.12-1.01,0-1.83-.66-2.57-.77-.87-.86-1.69-.38-2.85,.99-2.39,2.16-4.76,2.14-7.45,0-.07,0-.17,.03-.22,1.85-2.15,.74-4.47-.04-6.45-.82-2.08-.37-3.96-.13-5.91,.16-1.28,.59-2.46-.78-3.43-.3-.22-.14-1.11-.17-1.69-.08-1.35-.19-2.71-.2-4.07,0-.92,0-1.87,.24-2.75,.44-1.69,.49-1.71-.9-2.67-.86-.6-.89-1.05-.2-1.95,.13-.17,.09-.49,.09-.75,.02-1.18,.02-2.36,.02-3.54,0-.96-2.48-2.84-3.45-2.64-.3,.06-.69,.01-.97-.13-2.02-1.03-4.37,.22-5.52,1.94-.95,1.41-1.99,2.87-2.48,4.47-.46,1.48-.67,3.28-.24,4.72,.62,2.11,.34,3.93-.37,5.86-.18,.48-.08,1.07-.05,1.61,.02,.41,.21,.81,.2,1.21-.04,2.6,.8,4.99,1.68,7.37,.52,1.41,.74,2.81,.04,4.24-.22,.45-.33,1-.33,1.51,0,2.31-.2,4.64,.77,6.86,.2,.45,.02,1.11-.1,1.64-.53,2.19-1.21,4.35-1.63,6.56-.21,1.11,0,2.31,.08,3.47,.1,1.37,.29,2.74,.41,4.11,.3,3.61,.57,7.22,.86,10.82,.04,.47,.13,.94,.2,1.42-.93-.53-1.25-1.13-1.49-2.61-.43-2.66-.87-5.31-1.34-7.96-.11-.62-.35-1.22-.61-1.79-.4-.87-.87-1.67-.08-2.6,.15-.18-.03-.79-.23-1.09-.59-.84-.79-1.67-.35-2.63,.4-.86-.19-1.34-.77-1.77-.69-.52-.95-.84-.47-1.87,.79-1.7,2.31-3.2,1.86-5.39-.22-1.09-.15-2.23-.26-3.35-.02-.26-.15-.66-.34-.74-.93-.39-.63-1.02-.55-1.76,.16-1.51,.4-3.09,.11-4.54-.62-3.06-1.15-6.21-3.15-8.81-.22-.29-.32-.8-.24-1.15,.44-1.89,.92-3.77,1.47-5.62,.27-.94,.3-1.81,.26-2.79-.04-.98,.04-1.92-.18-2.93-.2-.91-.64-1.37-1.33-1.78-.59-.35-.9-.7-.39-1.42,.41-.59-.22-2.16-1.05-2.67-.5-.31-1.07-.57-1.65-.68-2.3-.42-4.61-.77-6.96-1.16,.47-.17,1.02-.49,1.59-.55,1.92-.2,3.86-.28,5.78-.46,.93-.08,1.89-.15,2.75-.45,1.3-.45,2.53-.43,3.85-.1,1.59,.4,3.22,.66,4.83,.94,.27,.05,.58-.1,.86-.18,1.94-.53,3.87-1.11,5.82-1.58,1.08-.26,2.21-.31,3.31-.47,2.61-.39,4.47,1.24,6.39,2.54,.72,.48,1.1,1.43,.9,2.51-.39,2.07-1.32,4.07-.93,6.27,.16,.91,.34,1.83,.44,2.75,.16,1.44,.12,2.92,.43,4.32,.32,1.43,.24,2.68-.09,4.13-.55,2.41-.64,4.95-.69,7.43-.02,.95,.54,1.93,.92,2.86,.47,1.15,.62,2.34-.09,3.34-1.39,1.94-1.8,4.24-2.62,6.39-.4,1.05-.88,2.15-.93,3.25-.24,5.04-.36,10.08-.45,15.12-.02,.91,.21,1.87,.5,2.74,.39,1.18,.66,2.27,.43,3.59-.27,1.52-.14,3.14-.02,4.71,.18,2.34,.28,4.61-1.46,6.5-.12,.13-.14,.34-.21,.51-.11-.01-.21-.02-.32-.03Z"/>
        <path class="cls-1" d="M219.29,18.89c.76-.91,1.52-1.82,2.36-2.82-1.11-.53-1.14-1.19-.7-2.08,.21-.41,.08-.99,.1-1.49,.05-1.42,.09-2.84,.15-4.54-.49-.59-1.09-1.66-2.41-1.78-.6-.06-1.2-.06-1.79-.11-.66-.06-1.53,.09-1.93-.27-.94-.86-1.96-.8-3.04-.74-.14,0-.29-.03-.58-.06,.71-.77,1.1-1.46,2.41-1.33,1.43,.14,2.93-.26,4.06-1.5,.95-1.04,2.14-1.92,3.73-1.16,.26,.13,.61,.23,.75,.45,1.04,1.64,2.16,3.24,3.01,4.98,1.01,2.06,.49,4.21-.07,6.33-.87,3.26-2.16,6.46-1.84,9.95,.04,.48,.1,.97,.15,1.45,.15,1.44,.42,2.89,.42,4.33,0,2.09,.2,4.11,1.04,6.03,.71,1.63,.32,3.3-.03,4.86-.5,2.22-.74,4.41-.42,6.67,.06,.43,.07,.92-.07,1.32-.59,1.7-.88,3.36-.61,5.22,.23,1.57-.22,3.23-.38,4.85,0,.07-.05,.15-.04,.22,.27,2.74-.85,5.22-1.47,7.79-.14,.56,.01,1.19,0,1.78-.01,.45-.08,.91-.28,1.35-.59-2.18-1-4.33-.53-6.58,.17-.81-.1-1.73-.26-2.58-.12-.62-.46-1.19-.57-1.81-.05-.29,.11-.73,.32-.93,.94-.9,1.53-3.27,.9-4.43-.5-.92-.38-1.62,.13-2.49,.97-1.64,.63-3.53,.76-5.33,.1-1.36,.25-2.72,.31-4.08,.02-.44-.24-.89-.21-1.32,.13-1.53-.49-2.82-1.04-4.18-.29-.72-.02-1.68,.03-2.53,.02-.29,.11-.59,.23-.86,.71-1.61-.21-2.87-.94-4.12-.68-1.17-1.26-2.26-.76-3.7,.28-.82,.47-1.77,.32-2.6-.13-.74-.77-1.39-1.21-2.13Z"/>
      </g>
    </g>
  </g>
</svg>